<svg width="210" height="116" viewBox="0 0 210 116" fill="none" xmlns="http://www.w3.org/2000/svg">
<g id="Red-Yellow 1" clip-path="url(#clip0_149_2742)">
<g id="RGB">
<g id="Red-Yellow">
<path id="Vector" d="M12.9447 60.4538C11.3757 60.4538 10.1469 61.0727 9.25548 62.3078C8.3641 63.543 7.91841 65.2538 7.91841 67.4428C7.91841 69.7009 8.35894 71.4552 9.23744 72.7031C10.1159 73.9511 11.3654 74.575 12.9833 74.575C14.5754 74.575 15.7888 73.9511 16.621 72.7031C17.4531 71.4526 17.8679 69.6293 17.8679 67.228C17.8679 65.1106 17.4351 63.4535 16.5669 62.2541C15.6987 61.0548 14.493 60.4538 12.9472 60.4538H12.9447ZM13.0529 54.2115C16.8554 54.2115 19.9237 55.4416 22.2526 57.9042C24.5816 60.3643 25.746 63.5916 25.746 67.586C25.746 71.5575 24.5738 74.7668 22.232 77.2141C19.8902 79.664 16.8065 80.8889 12.9782 80.8889C9.08029 80.8889 5.93985 79.6691 3.56455 77.232C1.18667 74.795 -0.000976562 71.5677 -0.000976562 67.5477C-0.000976562 63.5302 1.18667 60.3029 3.56455 57.8659C5.94243 55.4288 9.10348 54.209 13.0503 54.209L13.0529 54.2115Z" fill="#E52D2B"/>
<path id="Vector_2" d="M45.4258 72.6979C44.756 73.6952 43.6662 74.8588 41.4739 74.7488C40.0492 74.6772 38.859 74.0941 37.9985 72.7874C37.1071 71.4499 36.6614 69.7263 36.6614 67.5859C36.6614 65.356 37.1071 63.6043 37.9985 62.3538C38.4442 61.6991 39.0084 61.2234 39.6628 60.9268C39.959 60.7785 40.2579 60.6608 40.5851 60.5995C40.9406 60.51 41.2987 60.4793 41.7135 60.4793C42.5147 60.4793 43.2283 60.6276 43.8517 60.9242C44.4469 61.2516 44.9518 61.6684 45.3975 62.2617V62.2898C45.6345 62.5865 45.8148 62.9138 45.9617 63.2999C46.2579 63.9827 46.4975 64.8164 46.5851 65.737C46.6444 66.182 46.9535 70.4142 45.4258 72.6928V72.6979ZM51.6372 76.5312L51.4001 76.2627C52.3508 75.3421 53.0927 74.0916 53.6595 72.5189C54.1954 70.9129 54.4633 69.1893 54.4633 67.3481C54.4633 63.5429 53.2756 60.423 50.8978 57.9271C49.1433 56.0833 47.0051 54.9249 44.5679 54.4492C43.7049 54.3009 42.8161 54.2114 41.8938 54.2114C40.9432 54.2114 40.0209 54.3009 39.1604 54.4492C36.5455 54.9249 34.3454 56.0833 32.5034 57.9859C30.6614 59.8885 29.533 62.1466 29.0564 64.8215C28.9069 65.714 28.8193 66.6346 28.8193 67.614C28.8193 68.1204 28.8502 68.596 28.8786 69.0717C29.1156 72.3706 30.2749 75.0761 32.2947 77.2166C34.5824 79.6536 37.6146 80.9016 41.3579 80.9016H41.5666C43.9728 80.8734 45.9643 80.3364 47.51 79.357L50.854 82.6814L54.301 79.1754L51.6423 76.5338L51.6372 76.5312Z" fill="#E52D2B"/>
<path id="Vector_3" d="M79.2235 54.8892V61.4153H72.0924V80.2828H64.3173V61.4153H57.2197V54.8892H79.2235Z" fill="#E52D2B"/>
<path id="Vector_4" d="M103.734 54.8892V61.0598H90.3608V64.2334H102.485V70.1177H90.3608V73.8283H104.09V80.2828H82.6938V54.8892H103.734Z" fill="#E52D2B"/>
<path id="Vector_5" d="M115.94 61.1314V66.517H119.686C121.824 66.517 122.896 65.6245 122.896 63.8421C122.896 62.0367 121.778 61.134 119.544 61.134H115.943L115.94 61.1314ZM108.204 54.8892H119.258C126.652 54.8892 130.349 57.8991 130.349 63.9137C130.349 66.7191 129.476 68.8416 127.729 70.2788C125.982 71.7185 123.669 72.4371 120.794 72.4371H115.943V80.2828H108.206V54.8892H108.204Z" fill="#E52D2B"/>
<path id="Vector_6" d="M143.931 71.225L142.576 66.8725C142.267 65.8496 141.948 64.5658 141.615 63.0213C141.234 64.5428 140.876 65.8394 140.544 66.9083C140.186 68.0744 139.724 69.5116 139.152 71.225H143.931ZM145.428 54.8892L154.772 80.2828H146.891L145.645 76.6821H137.478L136.228 80.2828H128.348L137.728 54.8892H145.428Z" fill="#E52D2B"/>
<path id="Vector_7" d="M38.7377 106.341L37.3697 101.976C37.058 100.951 36.7334 99.6618 36.3984 98.1121C36.012 99.6388 35.6539 100.94 35.3164 102.012C34.9557 103.181 34.4894 104.623 33.9124 106.341H38.7377ZM40.2499 89.957L49.6842 115.43H41.7261L40.4663 111.817H32.2198L30.96 115.43H23.002L32.4722 89.957H40.2499Z" fill="#E52D2B"/>
<path id="Vector_8" d="M75.2613 89.9541L67.3754 115.427H58.5157L50.8462 89.9541H58.8042L60.1001 94.4984C61.6381 99.8635 62.6093 104.242 63.0164 107.627C63.4724 104.408 64.4565 100.043 65.9688 94.5342L67.2285 89.9541H75.2587H75.2613Z" fill="#E52D2B"/>
<path id="Vector_9" d="M92.1641 106.341L90.7961 101.976C90.4844 100.951 90.1598 99.6618 89.8248 98.1121C89.4384 99.6388 89.0777 100.94 88.7428 102.012C88.3821 103.181 87.9133 104.623 87.3388 106.341H92.1641ZM93.6763 89.957L103.111 115.43H95.1525L93.8927 111.817H85.6462L84.3864 115.43H76.4258L85.8961 89.957H93.6738H93.6763Z" fill="#E52D2B"/>
<path id="Vector_10" d="M126.851 97.6826H119.47C119.447 96.9205 119.145 96.3221 118.571 95.895C117.994 95.4654 117.203 95.2506 116.193 95.2506C114.464 95.2506 113.598 95.7774 113.598 96.8259C113.598 97.1123 113.743 97.3885 114.031 97.6493C114.32 97.9127 114.722 98.1326 115.24 98.3116C115.755 98.4906 116.229 98.6415 116.662 98.7592C117.094 98.8794 117.581 98.9893 118.12 99.0993C118.658 99.2067 118.978 99.2732 119.073 99.2962C120.08 99.5596 120.946 99.8102 121.665 100.048C122.386 100.286 123.164 100.629 124.006 101.068C124.846 101.511 125.524 101.999 126.042 102.534C126.56 103.071 126.998 103.751 127.356 104.572C127.716 105.395 127.897 106.321 127.897 107.344C127.897 109.991 126.889 112.098 124.872 113.658C122.855 115.22 120.129 116.003 116.698 116.003C113.119 116.003 110.298 115.187 108.235 113.553C106.169 111.919 105.115 109.684 105.066 106.845H112.952C113.07 109.039 114.402 110.136 116.948 110.136C117.932 110.136 118.712 109.947 119.287 109.564C119.864 109.183 120.152 108.669 120.152 108.024C120.152 107.618 119.982 107.272 119.647 106.986C119.336 106.722 118.735 106.436 117.847 106.127C116.958 105.817 115.909 105.49 114.696 105.142C113.483 104.797 112.72 104.564 112.408 104.444C111.378 104.086 110.525 103.741 109.853 103.406C109.18 103.071 108.531 102.636 107.908 102.099C107.284 101.564 106.82 100.907 106.521 100.132C106.22 99.3576 106.073 98.4446 106.073 97.3961C106.073 95.0128 107.026 93.0846 108.935 91.6193C110.842 90.1514 113.346 89.4175 116.443 89.4175C119.707 89.4175 122.247 90.1386 124.058 91.5835C125.872 93.0283 126.799 95.0588 126.848 97.6826H126.851Z" fill="#E52D2B"/>
<path id="Vector_11" d="M19.2666 108.812V115.466H0.00146484V89.9927H7.88736V108.812H19.2666Z" fill="#E52D2B"/>
<path id="Vector_12" d="M154.772 89.9951V115.468H146.922V105.415H139.505V115.468H131.617V89.9951H139.505V98.5466H146.922V89.9951H154.772Z" fill="#E52D2B"/>
<path id="Vector_13" fill-rule="evenodd" clip-rule="evenodd" d="M151.58 0C183.845 0 209.999 25.9613 209.999 57.9885C209.999 87.3842 187.965 111.668 159.394 115.46V107.745C183.698 104.014 202.301 83.1596 202.301 57.9911C202.301 30.1834 179.592 7.6411 151.578 7.6411C126.202 7.6411 105.179 26.1378 101.444 50.2886H93.6714C97.4662 21.903 121.943 0.00255726 151.578 0.00255726L151.58 0Z" fill="#FFCD00"/>
<path id="Vector_14" fill-rule="evenodd" clip-rule="evenodd" d="M151.58 12.9321C176.626 12.9321 196.93 33.1064 196.93 57.9911C196.93 80.2265 180.717 98.7002 159.396 102.38V94.5932C176.461 91.0207 189.27 75.9917 189.27 57.9885C189.27 37.3284 172.396 20.5783 151.582 20.5783C133.428 20.5783 118.272 33.3212 114.696 50.2886H106.897C110.576 29.0736 129.182 12.9321 151.585 12.9321H151.58Z" fill="#E52D2B"/>
<path id="Vector_15" fill-rule="evenodd" clip-rule="evenodd" d="M151.58 26.1968C169.269 26.1968 183.608 40.4305 183.608 57.9887C183.608 72.8719 173.306 85.3616 159.397 88.8267V80.8711C169.001 77.6387 175.913 68.6167 175.913 57.9912C175.913 44.6525 165.018 33.8379 151.58 33.8379C140.855 33.8379 131.751 40.7271 128.512 50.2887H120.503C123.971 36.4514 136.571 26.1993 151.583 26.1993L151.58 26.1968Z" fill="#FFCD00"/>
</g>
</g>
</g>
<defs>
<clipPath id="clip0_149_2742">
<rect width="210" height="116" fill="white"/>
</clipPath>
</defs>
</svg>
