<svg width="561" height="446" viewBox="0 0 561 446" fill="none" xmlns="http://www.w3.org/2000/svg">
<rect width="560.146" height="446" rx="6.59763" fill="white"/>
<path d="M150.234 48.0022H155.037L158.125 58.9279L161.107 48.0022H164.432L167.229 58.9543L170.291 48.0022H175.094L170 66.4492H165.699L162.664 55.7347L159.655 66.4492H155.327L150.234 48.0022ZM182.404 66.8451C179.923 66.8451 177.97 66.2645 176.545 65.1033C175.138 63.9421 174.434 62.2971 174.434 60.1683C174.434 58.0746 175.058 56.4208 176.308 55.2069C177.574 53.9929 179.395 53.3859 181.77 53.3859C183.284 53.3859 184.577 53.6762 185.65 54.2568C186.741 54.8198 187.559 55.6027 188.104 56.6055C188.667 57.5908 188.949 58.708 188.949 59.9571V61.6725H178.841C179.017 62.3763 179.457 62.8865 180.161 63.2032C180.864 63.5199 181.823 63.6782 183.037 63.6782C183.864 63.6782 184.709 63.6078 185.571 63.4671C186.45 63.3263 187.207 63.1328 187.84 62.8865V65.9478C187.189 66.2117 186.371 66.4228 185.386 66.5812C184.418 66.7571 183.424 66.8451 182.404 66.8451ZM184.568 58.7696C184.497 58.0834 184.216 57.5468 183.723 57.1598C183.231 56.7727 182.553 56.5792 181.691 56.5792C180.847 56.5792 180.178 56.7815 179.686 57.1861C179.193 57.5732 178.911 58.101 178.841 58.7696H184.568ZM198.228 66.8451C195.747 66.8451 193.794 66.2645 192.369 65.1033C190.962 63.9421 190.258 62.2971 190.258 60.1683C190.258 58.0746 190.882 56.4208 192.132 55.2069C193.398 53.9929 195.219 53.3859 197.594 53.3859C199.108 53.3859 200.401 53.6762 201.474 54.2568C202.565 54.8198 203.383 55.6027 203.928 56.6055C204.491 57.5908 204.773 58.708 204.773 59.9571V61.6725H194.665C194.841 62.3763 195.281 62.8865 195.985 63.2032C196.688 63.5199 197.647 63.6782 198.861 63.6782C199.688 63.6782 200.533 63.6078 201.395 63.4671C202.274 63.3263 203.031 63.1328 203.664 62.8865V65.9478C203.013 66.2117 202.195 66.4228 201.21 66.5812C200.242 66.7571 199.248 66.8451 198.228 66.8451ZM200.392 58.7696C200.321 58.0834 200.04 57.5468 199.547 57.1598C199.055 56.7727 198.377 56.5792 197.515 56.5792C196.671 56.5792 196.002 56.7815 195.51 57.1861C195.017 57.5732 194.735 58.101 194.665 58.7696H200.392ZM206.61 46.9466H211.254V58.8751L215.424 53.7818H220.755L215.714 59.9044L221.441 66.4492H216.11L211.254 60.8808V66.4492H206.61V46.9466ZM223.284 46.9466H227.929V66.4492H223.284V46.9466ZM234.2 71.6745C233.637 71.6745 233.048 71.6306 232.432 71.5426C231.816 71.4722 231.359 71.3667 231.06 71.2259V67.7687C231.57 67.9799 232.15 68.0854 232.801 68.0854C233.382 68.0854 233.831 67.9535 234.147 67.6896C234.481 67.4433 234.745 67.0474 234.939 66.502L235.256 65.6575L229.766 53.7818H234.411L237.71 62.0156L240.824 53.7818H245.469L240.243 67.0298C239.628 68.6132 238.836 69.7832 237.868 70.5398C236.918 71.2963 235.695 71.6745 234.2 71.6745ZM261.22 66.8451C260.199 66.8451 259.135 66.7395 258.027 66.5284C256.918 66.3349 256.038 66.0534 255.387 65.6839V62.2795C256.109 62.7018 256.971 63.0536 257.974 63.3351C258.994 63.599 259.927 63.731 260.771 63.731C261.387 63.731 261.836 63.687 262.117 63.599C262.399 63.5111 262.539 63.3351 262.539 63.0712C262.539 62.8601 262.443 62.693 262.249 62.5698C262.073 62.4291 261.739 62.2883 261.246 62.1476C260.771 61.9892 260.217 61.8221 259.584 61.6461C258.51 61.3295 257.666 61.004 257.05 60.6697C256.434 60.3354 255.977 59.9132 255.678 59.4029C255.379 58.8927 255.229 58.2506 255.229 57.4764C255.229 56.1041 255.766 55.0837 256.839 54.4151C257.93 53.729 259.416 53.3859 261.299 53.3859C262.214 53.3859 263.173 53.4827 264.176 53.6762C265.196 53.8697 265.961 54.1248 266.471 54.4415V57.7931C265.944 57.4413 265.24 57.151 264.36 56.9222C263.498 56.6935 262.689 56.5792 261.932 56.5792C261.334 56.5792 260.868 56.6407 260.534 56.7639C260.199 56.8695 260.032 57.063 260.032 57.3445C260.032 57.6084 260.199 57.8107 260.534 57.9515C260.868 58.0922 261.466 58.2682 262.328 58.4793C262.891 58.62 263.129 58.6816 263.041 58.664C264.167 58.9631 265.038 59.2974 265.653 59.6669C266.269 60.0363 266.7 60.4762 266.947 60.9864C267.21 61.479 267.342 62.1124 267.342 62.8865C267.342 64.1005 266.815 65.0681 265.759 65.7895C264.721 66.4932 263.208 66.8451 261.22 66.8451ZM269.184 53.7818H273.671V55.0485C274.849 53.9401 276.345 53.3859 278.157 53.3859C279.476 53.3859 280.646 53.6674 281.667 54.2304C282.687 54.7758 283.479 55.5587 284.042 56.5792C284.605 57.582 284.887 58.752 284.887 60.0891C284.887 61.4086 284.605 62.5874 284.042 63.6254C283.479 64.6459 282.687 65.4376 281.667 66.0006C280.664 66.5636 279.494 66.8451 278.157 66.8451C277.312 66.8451 276.503 66.7131 275.729 66.4492C274.972 66.2029 274.339 65.8598 273.829 65.42V72.2287H269.184V53.7818ZM276.943 63.2296C277.893 63.2296 278.658 62.9481 279.239 62.3851C279.82 61.8221 280.11 61.0568 280.11 60.0891C280.11 59.1214 279.82 58.3649 279.239 57.8195C278.658 57.2565 277.893 56.975 276.943 56.975C276.239 56.975 275.606 57.1598 275.043 57.5292C274.48 57.8811 274.075 58.3649 273.829 58.9807V61.2239C274.075 61.8397 274.48 62.3323 275.043 62.7018C275.606 63.0536 276.239 63.2296 276.943 63.2296ZM294.177 66.8451C291.696 66.8451 289.743 66.2645 288.318 65.1033C286.911 63.9421 286.207 62.2971 286.207 60.1683C286.207 58.0746 286.832 56.4208 288.081 55.2069C289.348 53.9929 291.168 53.3859 293.544 53.3859C295.057 53.3859 296.35 53.6762 297.423 54.2568C298.514 54.8198 299.332 55.6027 299.877 56.6055C300.44 57.5908 300.722 58.708 300.722 59.9571V61.6725H290.614C290.79 62.3763 291.23 62.8865 291.934 63.2032C292.638 63.5199 293.596 63.6782 294.81 63.6782C295.637 63.6782 296.482 63.6078 297.344 63.4671C298.224 63.3263 298.98 63.1328 299.613 62.8865V65.9478C298.962 66.2117 298.144 66.4228 297.159 66.5812C296.191 66.7571 295.197 66.8451 294.177 66.8451ZM296.341 58.7696C296.271 58.0834 295.989 57.5468 295.497 57.1598C295.004 56.7727 294.327 56.5792 293.464 56.5792C292.62 56.5792 291.951 56.7815 291.459 57.1861C290.966 57.5732 290.685 58.101 290.614 58.7696H296.341ZM302.559 53.7818H307.045V55.1805C307.591 54.5823 308.25 54.1336 309.025 53.8345C309.799 53.5355 310.608 53.3859 311.453 53.3859C313.229 53.3859 314.54 53.8521 315.385 54.7846C316.247 55.6995 316.678 56.9486 316.678 58.5321V66.4492H312.033V59.139C312.033 57.714 311.382 57.0014 310.08 57.0014C309.482 57.0014 308.937 57.1422 308.444 57.4237C307.951 57.6876 307.538 58.101 307.204 58.664V66.4492H302.559V53.7818ZM324.413 66.8451C322.848 66.8451 321.66 66.414 320.851 65.5519C320.059 64.6723 319.663 63.4759 319.663 61.9628V57.0014H317.868V53.7818H319.663V49.9815H324.308V53.7818H327.211V57.0014H324.308V61.3295C324.308 62.0156 324.431 62.5082 324.677 62.8073C324.941 63.1064 325.399 63.256 326.05 63.256C326.63 63.256 327.211 63.0976 327.791 62.7809V66.2381C327.334 66.4492 326.841 66.5988 326.313 66.6867C325.803 66.7923 325.17 66.8451 324.413 66.8451ZM338.073 46.9466H342.717V55.0749C343.28 54.5119 343.923 54.0897 344.644 53.8082C345.383 53.5267 346.157 53.3859 346.966 53.3859C348.743 53.3859 350.054 53.8521 350.899 54.7846C351.761 55.6995 352.192 56.9486 352.192 58.5321V66.4492H347.547V59.139C347.547 57.714 346.896 57.0014 345.594 57.0014C344.996 57.0014 344.45 57.1422 343.958 57.4237C343.465 57.6876 343.052 58.101 342.717 58.664V66.4492H338.073V46.9466ZM361.335 66.8451C359.769 66.8451 358.397 66.5636 357.218 66.0006C356.039 65.42 355.125 64.6283 354.474 63.6254C353.84 62.605 353.524 61.435 353.524 60.1155C353.524 58.796 353.84 57.6348 354.474 56.6319C355.125 55.6115 356.039 54.8198 357.218 54.2568C358.397 53.6762 359.769 53.3859 361.335 53.3859C362.901 53.3859 364.273 53.6762 365.452 54.2568C366.631 54.8198 367.537 55.6115 368.17 56.6319C368.821 57.6348 369.147 58.796 369.147 60.1155C369.147 61.435 368.821 62.605 368.17 63.6254C367.537 64.6283 366.631 65.42 365.452 66.0006C364.273 66.5636 362.901 66.8451 361.335 66.8451ZM361.335 63.2296C362.268 63.2296 363.007 62.9569 363.552 62.4115C364.115 61.8485 364.396 61.0831 364.396 60.1155C364.396 59.1478 364.115 58.3913 363.552 57.8459C363.007 57.2829 362.268 57.0014 361.335 57.0014C360.403 57.0014 359.655 57.2829 359.092 57.8459C358.547 58.3913 358.274 59.1478 358.274 60.1155C358.274 61.0831 358.547 61.8485 359.092 62.4115C359.655 62.9569 360.403 63.2296 361.335 63.2296ZM376.077 66.8451C374.335 66.8451 373.024 66.3613 372.145 65.3936C371.283 64.4259 370.852 63.1504 370.852 61.567V53.7818H375.496V61.0392C375.496 62.4994 376.156 63.2296 377.476 63.2296C378.074 63.2296 378.619 63.0888 379.112 62.8073C379.604 62.5258 380.009 62.1124 380.326 61.567V53.7818H384.971V66.4492H380.484V65.0769C379.939 65.6575 379.279 66.0973 378.505 66.3964C377.731 66.6955 376.921 66.8451 376.077 66.8451ZM387.349 53.7818H391.835V55.3652C392.328 54.8022 393.023 54.3712 393.92 54.0721C394.817 53.7554 395.811 53.597 396.902 53.597V57.1598C395.741 57.1598 394.712 57.3269 393.814 57.6612C392.935 57.9955 392.328 58.4969 391.994 59.1654V66.4492H387.349V53.7818ZM403.301 66.8451C402.28 66.8451 401.216 66.7395 400.108 66.5284C398.999 66.3349 398.119 66.0534 397.469 65.6839V62.2795C398.19 62.7018 399.052 63.0536 400.055 63.3351C401.075 63.599 402.008 63.731 402.852 63.731C403.468 63.731 403.917 63.687 404.198 63.599C404.48 63.5111 404.62 63.3351 404.62 63.0712C404.62 62.8601 404.524 62.693 404.33 62.5698C404.154 62.4291 403.82 62.2883 403.327 62.1476C402.852 61.9892 402.298 61.8221 401.665 61.6461C400.591 61.3295 399.747 61.004 399.131 60.6697C398.515 60.3354 398.058 59.9132 397.759 59.4029C397.46 58.8927 397.31 58.2506 397.31 57.4764C397.31 56.1041 397.847 55.0837 398.92 54.4151C400.011 53.729 401.497 53.3859 403.38 53.3859C404.295 53.3859 405.254 53.4827 406.257 53.6762C407.277 53.8697 408.042 54.1248 408.553 54.4415V57.7931C408.025 57.4413 407.321 57.151 406.441 56.9222C405.579 56.6935 404.77 56.5792 404.013 56.5792C403.415 56.5792 402.949 56.6407 402.615 56.7639C402.28 56.8695 402.113 57.063 402.113 57.3445C402.113 57.6084 402.28 57.8107 402.615 57.9515C402.949 58.0922 403.547 58.2682 404.409 58.4793C404.972 58.62 405.21 58.6816 405.122 58.664C406.248 58.9631 407.119 59.2974 407.734 59.6669C408.35 60.0363 408.781 60.4762 409.028 60.9864C409.291 61.479 409.423 62.1124 409.423 62.8865C409.423 64.1005 408.896 65.0681 407.84 65.7895C406.802 66.4932 405.289 66.8451 403.301 66.8451Z" fill="#23262D"/>
<path d="M194.664 102.047V100.697L199.732 95.1493C200.327 94.4996 200.816 93.9348 201.201 93.455C201.586 92.9701 201.871 92.5153 202.056 92.0904C202.246 91.6606 202.341 91.2108 202.341 90.7409C202.341 90.2011 202.211 89.7338 201.951 89.3389C201.696 88.9441 201.346 88.6392 200.901 88.4243C200.457 88.2093 199.957 88.1019 199.402 88.1019C198.812 88.1019 198.297 88.2243 197.858 88.4692C197.423 88.7092 197.085 89.0465 196.845 89.4814C196.61 89.9162 196.493 90.426 196.493 91.0108H194.724C194.724 90.1112 194.931 89.3214 195.346 88.6417C195.761 87.9619 196.326 87.4321 197.04 87.0523C197.76 86.6724 198.567 86.4825 199.462 86.4825C200.362 86.4825 201.159 86.6724 201.854 87.0523C202.548 87.4321 203.093 87.9444 203.488 88.5892C203.883 89.234 204.08 89.9512 204.08 90.7409C204.08 91.3057 203.978 91.858 203.773 92.3978C203.573 92.9326 203.223 93.5299 202.723 94.1897C202.228 94.8445 201.541 95.6442 200.661 96.5888L197.213 100.278V100.397H204.35V102.047H194.664ZM212.545 102.257C211.915 102.247 211.285 102.127 210.655 101.897C210.026 101.667 209.451 101.28 208.931 100.735C208.411 100.185 207.994 99.4428 207.679 98.5081C207.364 97.5685 207.207 96.3889 207.207 94.9694C207.207 93.6099 207.334 92.4053 207.589 91.3557C207.844 90.3011 208.214 89.4139 208.699 88.6942C209.183 87.9694 209.768 87.4196 210.453 87.0448C211.143 86.6699 211.92 86.4825 212.785 86.4825C213.644 86.4825 214.409 86.6549 215.079 86.9998C215.754 87.3397 216.303 87.8145 216.728 88.4243C217.153 89.034 217.428 89.7363 217.553 90.531H215.724C215.554 89.8413 215.224 89.269 214.734 88.8141C214.244 88.3593 213.594 88.1319 212.785 88.1319C211.595 88.1319 210.658 88.6492 209.973 89.6838C209.293 90.7184 208.951 92.1704 208.946 94.0397H209.066C209.346 93.6149 209.678 93.2525 210.063 92.9526C210.453 92.6477 210.883 92.4128 211.353 92.2479C211.822 92.0829 212.32 92.0005 212.845 92.0005C213.724 92.0005 214.529 92.2204 215.259 92.6602C215.988 93.0951 216.573 93.6974 217.013 94.4671C217.453 95.2318 217.673 96.109 217.673 97.0987C217.673 98.0483 217.46 98.918 217.036 99.7077C216.611 100.492 216.013 101.117 215.244 101.582C214.479 102.042 213.579 102.267 212.545 102.257ZM212.545 100.607C213.175 100.607 213.739 100.45 214.239 100.135C214.744 99.8202 215.141 99.3978 215.431 98.868C215.726 98.3382 215.874 97.7484 215.874 97.0987C215.874 96.4639 215.731 95.8866 215.446 95.3668C215.166 94.842 214.779 94.4246 214.284 94.1147C213.794 93.8048 213.234 93.6499 212.605 93.6499C212.13 93.6499 211.688 93.7449 211.278 93.9348C210.868 94.1197 210.508 94.3746 210.198 94.6995C209.893 95.0244 209.653 95.3968 209.478 95.8166C209.303 96.2315 209.216 96.6688 209.216 97.1286C209.216 97.7384 209.358 98.3082 209.643 98.838C209.933 99.3678 210.328 99.7952 210.828 100.12C211.333 100.445 211.905 100.607 212.545 100.607ZM228.358 95.1194V102.047H226.589V86.6924H228.358V92.3304H228.508C228.778 91.7356 229.183 91.2632 229.723 90.9134C230.268 90.5585 230.992 90.3811 231.897 90.3811C232.682 90.3811 233.369 90.5385 233.959 90.8534C234.549 91.1633 235.006 91.6406 235.331 92.2854C235.661 92.9251 235.826 93.7399 235.826 94.7295V102.047H234.056V94.8495C234.056 93.9348 233.819 93.2275 233.344 92.7277C232.874 92.2229 232.222 91.9705 231.387 91.9705C230.808 91.9705 230.288 92.0929 229.828 92.3379C229.373 92.5828 229.013 92.9401 228.748 93.41C228.488 93.8798 228.358 94.4496 228.358 95.1194ZM243.741 102.287C242.701 102.287 241.789 102.039 241.005 101.545C240.225 101.05 239.615 100.357 239.175 99.4678C238.74 98.5781 238.523 97.5385 238.523 96.3489C238.523 95.1493 238.74 94.1022 239.175 93.2075C239.615 92.3129 240.225 91.6181 241.005 91.1233C241.789 90.6285 242.701 90.3811 243.741 90.3811C244.781 90.3811 245.69 90.6285 246.47 91.1233C247.255 91.6181 247.865 92.3129 248.299 93.2075C248.739 94.1022 248.959 95.1493 248.959 96.3489C248.959 97.5385 248.739 98.5781 248.299 99.4678C247.865 100.357 247.255 101.05 246.47 101.545C245.69 102.039 244.781 102.287 243.741 102.287ZM243.741 100.697C244.531 100.697 245.181 100.495 245.69 100.09C246.2 99.6852 246.578 99.1529 246.822 98.4931C247.067 97.8334 247.19 97.1186 247.19 96.3489C247.19 95.5792 247.067 94.862 246.822 94.1972C246.578 93.5324 246.2 92.9951 245.69 92.5853C245.181 92.1754 244.531 91.9705 243.741 91.9705C242.951 91.9705 242.302 92.1754 241.792 92.5853C241.282 92.9951 240.905 93.5324 240.66 94.1972C240.415 94.862 240.292 95.5792 240.292 96.3489C240.292 97.1186 240.415 97.8334 240.66 98.4931C240.905 99.1529 241.282 99.6852 241.792 100.09C242.302 100.495 242.951 100.697 243.741 100.697ZM258.917 97.3386V90.531H260.687V102.047H258.917V100.098H258.798C258.528 100.682 258.108 101.18 257.538 101.59C256.968 101.994 256.248 102.197 255.379 102.197C254.659 102.197 254.019 102.039 253.459 101.724C252.9 101.405 252.46 100.925 252.14 100.285C251.82 99.6402 251.66 98.828 251.66 97.8484V90.531H253.429V97.7284C253.429 98.5681 253.664 99.2379 254.134 99.7377C254.609 100.238 255.214 100.487 255.949 100.487C256.388 100.487 256.836 100.375 257.291 100.15C257.75 99.9251 258.135 99.5803 258.445 99.1154C258.76 98.6506 258.917 98.0583 258.917 97.3386ZM263.928 102.047V90.531H265.637V92.2704H265.757C265.967 91.7006 266.347 91.2383 266.896 90.8834C267.446 90.5285 268.066 90.3511 268.756 90.3511C268.886 90.3511 269.048 90.3536 269.243 90.3586C269.438 90.3636 269.586 90.3711 269.685 90.3811V92.1804C269.626 92.1654 269.488 92.1429 269.273 92.1129C269.063 92.078 268.841 92.0605 268.606 92.0605C268.046 92.0605 267.546 92.1779 267.106 92.4128C266.672 92.6427 266.327 92.9626 266.072 93.3725C265.822 93.7773 265.697 94.2397 265.697 94.7595V102.047H263.928ZM279.94 93.1101L278.35 93.5599C278.251 93.295 278.103 93.0376 277.908 92.7877C277.718 92.5328 277.458 92.3229 277.128 92.1579C276.799 91.993 276.376 91.9105 275.861 91.9105C275.157 91.9105 274.569 92.073 274.1 92.3978C273.635 92.7177 273.402 93.1251 273.402 93.6199C273.402 94.0597 273.562 94.4071 273.882 94.662C274.202 94.9169 274.702 95.1294 275.382 95.2993L277.091 95.7191C278.121 95.9691 278.888 96.3514 279.393 96.8662C279.897 97.3761 280.15 98.0333 280.15 98.838C280.15 99.4978 279.96 100.088 279.58 100.607C279.205 101.127 278.68 101.537 278.006 101.837C277.331 102.137 276.546 102.287 275.651 102.287C274.477 102.287 273.505 102.032 272.735 101.522C271.965 101.012 271.478 100.268 271.273 99.2879L272.952 98.868C273.112 99.4878 273.415 99.9526 273.86 100.263C274.309 100.572 274.897 100.727 275.621 100.727C276.446 100.727 277.101 100.552 277.586 100.203C278.076 99.8477 278.321 99.4228 278.321 98.928C278.321 98.5281 278.181 98.1933 277.901 97.9234C277.621 97.6485 277.191 97.4435 276.611 97.3086L274.692 96.8587C273.637 96.6088 272.862 96.2215 272.368 95.6967C271.878 95.1668 271.633 94.5046 271.633 93.7099C271.633 93.0601 271.815 92.4853 272.18 91.9855C272.55 91.4857 273.052 91.0933 273.687 90.8084C274.327 90.5235 275.052 90.3811 275.861 90.3811C277.001 90.3811 277.896 90.631 278.545 91.1308C279.2 91.6306 279.665 92.2904 279.94 93.1101ZM288.361 98.898V97.3686L295.109 86.6924H296.218V89.0615H295.469L290.371 97.1286V97.2486H299.457V98.898H288.361ZM295.589 102.047V98.4332V97.7209V86.6924H297.358V102.047H295.589ZM307.065 102.257C306.186 102.257 305.393 102.082 304.689 101.732C303.984 101.382 303.419 100.902 302.994 100.293C302.569 99.6827 302.337 98.988 302.297 98.2083H304.096C304.166 98.903 304.481 99.4778 305.041 99.9326C305.606 100.382 306.28 100.607 307.065 100.607C307.695 100.607 308.255 100.46 308.745 100.165C309.239 99.8702 309.627 99.4653 309.907 98.9505C310.192 98.4307 310.334 97.8434 310.334 97.1886C310.334 96.5189 310.187 95.9216 309.892 95.3968C309.602 94.867 309.202 94.4496 308.692 94.1447C308.182 93.8398 307.6 93.6849 306.945 93.6799C306.475 93.6749 305.993 93.7474 305.498 93.8973C305.003 94.0422 304.596 94.2297 304.276 94.4596L302.537 94.2497L303.466 86.6924H311.444V88.3418H305.026L304.486 92.8702H304.576C304.891 92.6203 305.286 92.4128 305.761 92.2479C306.235 92.0829 306.73 92.0005 307.245 92.0005C308.185 92.0005 309.022 92.2254 309.757 92.6752C310.496 93.1201 311.076 93.7299 311.496 94.5046C311.921 95.2793 312.133 96.164 312.133 97.1586C312.133 98.1383 311.913 99.013 311.474 99.7827C311.039 100.547 310.439 101.152 309.674 101.597C308.91 102.037 308.04 102.257 307.065 102.257ZM321.08 102.047V90.531H322.789V92.3304H322.939C323.179 91.7156 323.566 91.2383 324.101 90.8984C324.636 90.5535 325.278 90.3811 326.028 90.3811C326.787 90.3811 327.42 90.5535 327.925 90.8984C328.434 91.2383 328.832 91.7156 329.117 92.3304H329.237C329.532 91.7356 329.974 91.2632 330.564 90.9134C331.153 90.5585 331.861 90.3811 332.685 90.3811C333.715 90.3811 334.557 90.7034 335.212 91.3482C335.867 91.988 336.194 92.9851 336.194 94.3396V102.047H334.425V94.3396C334.425 93.4899 334.192 92.8827 333.728 92.5178C333.263 92.1529 332.715 91.9705 332.086 91.9705C331.276 91.9705 330.649 92.2154 330.204 92.7052C329.759 93.1901 329.537 93.8048 329.537 94.5496V102.047H327.737V94.1597C327.737 93.5049 327.525 92.9776 327.1 92.5778C326.675 92.1729 326.128 91.9705 325.458 91.9705C324.998 91.9705 324.568 92.0929 324.168 92.3379C323.774 92.5828 323.454 92.9226 323.209 93.3575C322.969 93.7873 322.849 94.2847 322.849 94.8495V102.047H321.08ZM339.429 102.047V90.531H341.199V102.047H339.429ZM340.329 88.6117C339.984 88.6117 339.687 88.4942 339.437 88.2593C339.192 88.0244 339.069 87.742 339.069 87.4121C339.069 87.0822 339.192 86.7998 339.437 86.5649C339.687 86.33 339.984 86.2126 340.329 86.2126C340.674 86.2126 340.969 86.33 341.214 86.5649C341.463 86.7998 341.588 87.0822 341.588 87.4121C341.588 87.742 341.463 88.0244 341.214 88.2593C340.969 88.4942 340.674 88.6117 340.329 88.6117ZM346.209 95.1194V102.047H344.439V90.531H346.149V92.3304H346.299C346.569 91.7456 346.978 91.2757 347.528 90.9209C348.078 90.561 348.788 90.3811 349.657 90.3811C350.437 90.3811 351.119 90.541 351.704 90.8609C352.289 91.1758 352.744 91.6556 353.069 92.3004C353.394 92.9401 353.556 93.7499 353.556 94.7295V102.047H351.787V94.8495C351.787 93.9448 351.552 93.24 351.082 92.7352C350.612 92.2254 349.967 91.9705 349.148 91.9705C348.583 91.9705 348.078 92.0929 347.633 92.3379C347.193 92.5828 346.846 92.9401 346.591 93.41C346.336 93.8798 346.209 94.4496 346.209 95.1194ZM364.946 93.1101L363.357 93.5599C363.257 93.295 363.109 93.0376 362.915 92.7877C362.725 92.5328 362.465 92.3229 362.135 92.1579C361.805 91.993 361.383 91.9105 360.868 91.9105C360.163 91.9105 359.576 92.073 359.106 92.3978C358.641 92.7177 358.409 93.1251 358.409 93.6199C358.409 94.0597 358.569 94.4071 358.888 94.662C359.208 94.9169 359.708 95.1294 360.388 95.2993L362.097 95.7191C363.127 95.9691 363.894 96.3514 364.399 96.8662C364.904 97.3761 365.156 98.0333 365.156 98.838C365.156 99.4978 364.966 100.088 364.586 100.607C364.212 101.127 363.687 101.537 363.012 101.837C362.337 102.137 361.553 102.287 360.658 102.287C359.483 102.287 358.511 102.032 357.741 101.522C356.972 101.012 356.484 100.268 356.279 99.2879L357.959 98.868C358.119 99.4878 358.421 99.9526 358.866 100.263C359.316 100.572 359.903 100.727 360.628 100.727C361.453 100.727 362.107 100.552 362.592 100.203C363.082 99.8477 363.327 99.4228 363.327 98.928C363.327 98.5281 363.187 98.1933 362.907 97.9234C362.627 97.6485 362.197 97.4435 361.618 97.3086L359.698 96.8587C358.644 96.6088 357.869 96.2215 357.374 95.6967C356.884 95.1668 356.639 94.5046 356.639 93.7099C356.639 93.0601 356.822 92.4853 357.187 91.9855C357.556 91.4857 358.059 91.0933 358.694 90.8084C359.333 90.5235 360.058 90.3811 360.868 90.3811C362.007 90.3811 362.902 90.631 363.552 91.1308C364.207 91.6306 364.671 92.2904 364.946 93.1101Z" fill="#606877"/>
<path d="M95.1299 182.038C94.2502 182.038 93.458 181.863 92.7532 181.513C92.0485 181.163 91.4837 180.684 91.0589 180.074C90.634 179.464 90.4016 178.769 90.3616 177.99H92.161C92.2309 178.684 92.5458 179.259 93.1056 179.714C93.6704 180.164 94.3452 180.389 95.1299 180.389C95.7597 180.389 96.3195 180.241 96.8093 179.946C97.3041 179.651 97.6915 179.247 97.9714 178.732C98.2563 178.212 98.3987 177.625 98.3987 176.97C98.3987 176.3 98.2513 175.703 97.9564 175.178C97.6665 174.648 97.2666 174.231 96.7568 173.926C96.247 173.621 95.6647 173.466 95.0099 173.461C94.5401 173.456 94.0578 173.529 93.563 173.679C93.0681 173.823 92.6608 174.011 92.3409 174.241L90.6015 174.031L91.5312 166.474H99.5083V168.123H93.0906L92.5508 172.651H92.6408C92.9557 172.402 93.3505 172.194 93.8254 172.029C94.3002 171.864 94.795 171.782 95.3098 171.782C96.2495 171.782 97.0867 172.007 97.8214 172.456C98.5612 172.901 99.141 173.511 99.5608 174.286C99.9857 175.061 100.198 175.945 100.198 176.94C100.198 177.92 99.9782 178.794 99.5383 179.564C99.1035 180.329 98.5037 180.933 97.739 181.378C96.9742 181.818 96.1045 182.038 95.1299 182.038Z" fill="#606877"/>
<path d="M89.9717 225.472V223.943L96.7193 213.267H97.8289V215.636H97.0792L91.981 223.703V223.823H101.068V225.472H89.9717ZM97.1992 228.621V225.007V224.295V213.267H98.9685V228.621H97.1992Z" fill="#606877"/>
<path d="M95.5198 275.624C94.5301 275.624 93.6479 275.454 92.8732 275.114C92.1035 274.774 91.4912 274.302 91.0364 273.697C90.5865 273.087 90.3416 272.38 90.3016 271.575H92.191C92.2309 272.07 92.4009 272.498 92.7008 272.857C93.0007 273.212 93.393 273.487 93.8778 273.682C94.3627 273.877 94.9 273.975 95.4898 273.975C96.1495 273.975 96.7343 273.86 97.2441 273.63C97.754 273.4 98.1538 273.08 98.4437 272.67C98.7336 272.26 98.8786 271.785 98.8786 271.246C98.8786 270.681 98.7386 270.183 98.4587 269.754C98.1788 269.319 97.7689 268.979 97.2291 268.734C96.6893 268.489 96.0296 268.367 95.2499 268.367H94.0203V266.717H95.2499C95.8596 266.717 96.3944 266.607 96.8543 266.387C97.3191 266.167 97.6815 265.857 97.9414 265.458C98.2063 265.058 98.3387 264.588 98.3387 264.048C98.3387 263.528 98.2238 263.076 97.9939 262.691C97.764 262.306 97.4391 262.006 97.0192 261.791C96.6044 261.577 96.1145 261.469 95.5497 261.469C95.0199 261.469 94.5201 261.567 94.0503 261.761C93.5854 261.951 93.2056 262.229 92.9107 262.594C92.6158 262.954 92.4559 263.388 92.4309 263.898H90.6315C90.6615 263.093 90.9039 262.389 91.3587 261.784C91.8136 261.174 92.4084 260.699 93.1431 260.359C93.8828 260.02 94.6951 259.85 95.5797 259.85C96.5294 259.85 97.3441 260.042 98.0239 260.427C98.7036 260.807 99.2259 261.309 99.5908 261.934C99.9557 262.559 100.138 263.233 100.138 263.958C100.138 264.823 99.9107 265.56 99.4558 266.17C99.006 266.78 98.3937 267.202 97.619 267.437V267.557C98.5887 267.717 99.3459 268.129 99.8907 268.794C100.435 269.454 100.708 270.271 100.708 271.246C100.708 272.08 100.48 272.83 100.026 273.495C99.5758 274.155 98.961 274.674 98.1813 275.054C97.4016 275.434 96.5144 275.624 95.5198 275.624Z" fill="#606877"/>
<path d="M90.3316 322.207V320.858L95.3998 315.31C95.9946 314.66 96.4844 314.095 96.8693 313.615C97.2541 313.13 97.539 312.675 97.724 312.251C97.9139 311.821 98.0089 311.371 98.0089 310.901C98.0089 310.361 97.8789 309.894 97.619 309.499C97.3641 309.104 97.0142 308.799 96.5694 308.584C96.1245 308.369 95.6247 308.262 95.0699 308.262C94.4801 308.262 93.9653 308.384 93.5255 308.629C93.0906 308.869 92.7532 309.207 92.5133 309.642C92.2784 310.076 92.161 310.586 92.161 311.171H90.3916C90.3916 310.271 90.599 309.482 91.0139 308.802C91.4287 308.122 91.9935 307.592 92.7083 307.212C93.428 306.833 94.2352 306.643 95.1299 306.643C96.0296 306.643 96.8268 306.833 97.5215 307.212C98.2163 307.592 98.7611 308.105 99.156 308.749C99.5508 309.394 99.7482 310.111 99.7482 310.901C99.7482 311.466 99.6458 312.018 99.4408 312.558C99.2409 313.093 98.891 313.69 98.3912 314.35C97.8964 315.005 97.2091 315.804 96.3295 316.749L92.8807 320.438V320.558H100.018V322.207H90.3316Z" fill="#606877"/>
<path d="M95.7297 353.646V369H93.8703V355.595H93.7804L90.0317 358.084V356.195L93.8703 353.646H95.7297Z" fill="#606877"/>
<path d="M124.91 384.196H127.129L132.347 396.942H132.527L137.746 384.196H139.965V399.551H138.225V387.885H138.075L133.277 399.551H131.598L126.799 387.885H126.649V399.551H124.91V384.196Z" fill="#606877"/>
<path d="M182.656 385.846V384.196H194.172V385.846H189.344V399.551H187.485V385.846H182.656Z" fill="#606877"/>
<path d="M239.871 399.551L235.672 384.196H237.562L240.771 396.702H240.921L244.189 384.196H246.289L249.558 396.702H249.707L252.916 384.196H254.806L250.607 399.551H248.688L245.299 387.315H245.179L241.79 399.551H239.871Z" fill="#606877"/>
<path d="M296.828 385.846V384.196H308.344V385.846H303.516V399.551H301.656V385.846H296.828Z" fill="#606877"/>
<path d="M351.254 399.551V384.196H360.461V385.846H353.113V391.034H359.771V392.683H353.113V399.551H351.254Z" fill="#606877"/>
<path d="M412.237 388.035C412.147 387.275 411.782 386.685 411.142 386.266C410.502 385.846 409.718 385.636 408.788 385.636C408.108 385.636 407.513 385.746 407.004 385.966C406.499 386.186 406.104 386.488 405.819 386.873C405.539 387.258 405.399 387.695 405.399 388.185C405.399 388.595 405.497 388.947 405.692 389.242C405.892 389.532 406.146 389.774 406.456 389.969C406.766 390.159 407.091 390.317 407.431 390.442C407.771 390.562 408.083 390.659 408.368 390.734L409.928 391.154C410.327 391.259 410.772 391.404 411.262 391.589C411.757 391.774 412.229 392.026 412.679 392.346C413.134 392.661 413.509 393.066 413.804 393.56C414.099 394.055 414.246 394.663 414.246 395.382C414.246 396.212 414.029 396.962 413.594 397.631C413.164 398.301 412.534 398.834 411.704 399.228C410.88 399.623 409.878 399.821 408.698 399.821C407.598 399.821 406.646 399.643 405.842 399.288C405.042 398.934 404.412 398.439 403.952 397.804C403.497 397.169 403.24 396.432 403.18 395.592H405.099C405.149 396.172 405.344 396.652 405.684 397.032C406.029 397.407 406.464 397.686 406.989 397.871C407.518 398.051 408.088 398.141 408.698 398.141C409.408 398.141 410.045 398.026 410.61 397.796C411.175 397.561 411.622 397.237 411.952 396.822C412.282 396.402 412.447 395.912 412.447 395.352C412.447 394.842 412.304 394.428 412.019 394.108C411.734 393.788 411.36 393.528 410.895 393.328C410.43 393.128 409.928 392.953 409.388 392.803L407.498 392.263C406.299 391.919 405.349 391.426 404.65 390.786C403.95 390.147 403.6 389.309 403.6 388.275C403.6 387.415 403.832 386.665 404.297 386.026C404.767 385.381 405.397 384.881 406.186 384.526C406.981 384.166 407.868 383.986 408.848 383.986C409.838 383.986 410.717 384.164 411.487 384.519C412.257 384.869 412.867 385.348 413.316 385.958C413.771 386.568 414.011 387.26 414.036 388.035H412.237Z" fill="#606877"/>
<path d="M465.823 388.035C465.733 387.275 465.368 386.685 464.728 386.266C464.088 385.846 463.304 385.636 462.374 385.636C461.694 385.636 461.099 385.746 460.59 385.966C460.085 386.186 459.69 386.488 459.405 386.873C459.125 387.258 458.985 387.695 458.985 388.185C458.985 388.595 459.083 388.947 459.278 389.242C459.478 389.532 459.732 389.774 460.042 389.969C460.352 390.159 460.677 390.317 461.017 390.442C461.357 390.562 461.669 390.659 461.954 390.734L463.514 391.154C463.913 391.259 464.358 391.404 464.848 391.589C465.343 391.774 465.815 392.026 466.265 392.346C466.72 392.661 467.095 393.066 467.39 393.56C467.685 394.055 467.832 394.663 467.832 395.382C467.832 396.212 467.615 396.962 467.18 397.631C466.75 398.301 466.12 398.834 465.29 399.228C464.466 399.623 463.464 399.821 462.284 399.821C461.184 399.821 460.232 399.643 459.428 399.288C458.628 398.934 457.998 398.439 457.538 397.804C457.083 397.169 456.826 396.432 456.766 395.592H458.685C458.735 396.172 458.93 396.652 459.27 397.032C459.615 397.407 460.05 397.686 460.575 397.871C461.104 398.051 461.674 398.141 462.284 398.141C462.994 398.141 463.631 398.026 464.196 397.796C464.761 397.561 465.208 397.237 465.538 396.822C465.868 396.402 466.033 395.912 466.033 395.352C466.033 394.842 465.89 394.428 465.605 394.108C465.32 393.788 464.946 393.528 464.481 393.328C464.016 393.128 463.514 392.953 462.974 392.803L461.084 392.263C459.885 391.919 458.935 391.426 458.235 390.786C457.536 390.147 457.186 389.309 457.186 388.275C457.186 387.415 457.418 386.665 457.883 386.026C458.353 385.381 458.983 384.881 459.772 384.526C460.567 384.166 461.454 383.986 462.434 383.986C463.424 383.986 464.303 384.164 465.073 384.519C465.843 384.869 466.453 385.348 466.902 385.958C467.357 386.568 467.597 387.26 467.622 388.035H465.823Z" fill="#606877"/>
<rect x="127.008" y="168.745" width="13.1953" height="192.651" rx="6.59763" fill="#FFF3FB"/>
<rect x="127.008" y="270.349" width="13.1953" height="91.0473" rx="6.59763" fill="#F855C5"/>
<rect x="183.746" y="168.745" width="13.1953" height="192.651" rx="6.59763" fill="#EFFFFF"/>
<rect x="183.746" y="236.041" width="13.1953" height="125.355" rx="6.59763" fill="#08D7D8"/>
<rect x="240.488" y="168.745" width="13.1953" height="192.651" rx="6.59763" fill="#FFF3FB"/>
<rect x="240.488" y="255.834" width="13.1953" height="105.562" rx="6.59763" fill="#F855C5"/>
<rect x="298.543" y="168.745" width="13.1953" height="192.651" rx="6.59763" fill="#EFFFFF"/>
<rect x="298.543" y="217.567" width="13.1953" height="143.828" rx="6.59763" fill="#08D7D8"/>
<rect x="351.328" y="168.745" width="13.1953" height="192.651" rx="6.59763" fill="#FFF3FB"/>
<rect x="351.328" y="270.349" width="13.1953" height="91.0473" rx="6.59763" fill="#F855C5"/>
<rect x="405.43" y="168.745" width="13.1953" height="192.651" rx="6.59763" fill="#EFFFFF"/>
<rect x="405.43" y="303.337" width="13.1953" height="58.0592" rx="6.59763" fill="#08D7D8"/>
<rect x="458.207" y="168.745" width="13.1953" height="193.97" rx="6.59763" fill="#FFF3FB"/>
<rect x="458.207" y="276.946" width="13.1953" height="85.7692" rx="6.59763" fill="#F855C5"/>
<line x1="108.535" y1="220.867" x2="298.547" y2="220.867" stroke="#606877" stroke-width="1.31953" stroke-dasharray="6.6 6.6"/>
</svg>
